<?xml version="1.0" encoding="UTF-8"?>
<svg id="Calque_1" data-name="Calque 1" xmlns="http://www.w3.org/2000/svg" viewBox="0 0 369.39 263.89">
  <defs>
    <style>
      .cls-1 {
        fill: #fff;
        stroke-width: 0px;
      }
    </style>
  </defs>
  <path class="cls-1" d="M226.08,244.22c-.53-.69-1.17-1.21-1.92-1.57-.75-.35-1.58-.53-2.5-.53-1.15,0-2.17.25-3.05.76-.88.51-1.67,1.18-2.35,2.01l-.24-1.9c-.11-.39-.36-.59-.76-.59h-1.68v21.49h2.82v-7.1c.54.6,1.16,1.07,1.86,1.39.7.33,1.55.49,2.54.49,1.08,0,2.05-.21,2.91-.64.86-.43,1.59-1.01,2.18-1.76.59-.74,1.05-1.63,1.36-2.65.32-1.02.48-2.12.48-3.3,0-1.33-.14-2.51-.43-3.53s-.69-1.88-1.22-2.57ZM223.61,254.89c-.8,1.07-1.95,1.6-3.44,1.6-.76,0-1.45-.14-2.07-.43-.62-.29-1.19-.78-1.7-1.47v-7.77c.58-.77,1.22-1.37,1.91-1.79.69-.42,1.5-.63,2.42-.63.64,0,1.22.11,1.73.33.51.22.94.57,1.28,1.05.35.48.61,1.1.8,1.85.18.75.28,1.65.28,2.69,0,1.98-.4,3.5-1.2,4.56Z"/>
  <path class="cls-1" d="M247.21,244.4c-.66-.72-1.46-1.27-2.41-1.66-.95-.39-2-.59-3.18-.59s-2.23.19-3.18.59c-.95.39-1.75.95-2.42,1.66-.67.72-1.18,1.59-1.54,2.61-.36,1.02-.54,2.16-.54,3.41s.18,2.41.54,3.42c.36,1.01.87,1.88,1.54,2.6.67.72,1.47,1.27,2.42,1.66.95.39,2,.58,3.18.58s2.23-.19,3.18-.58c.95-.39,1.75-.94,2.41-1.66.66-.72,1.17-1.58,1.52-2.6.35-1.01.53-2.15.53-3.42s-.18-2.39-.53-3.41c-.35-1.02-.86-1.89-1.52-2.61ZM245.17,254.88c-.78,1.06-1.96,1.59-3.55,1.59-.8,0-1.5-.14-2.09-.41-.59-.27-1.08-.67-1.48-1.18-.4-.51-.69-1.14-.89-1.89-.2-.75-.29-1.6-.29-2.55s.1-1.8.29-2.56c.2-.76.49-1.39.89-1.91.4-.52.89-.91,1.48-1.19.59-.27,1.29-.41,2.09-.41,1.58,0,2.77.53,3.55,1.6.78,1.07,1.17,2.56,1.17,4.47s-.39,3.38-1.17,4.45Z"/>
  <path class="cls-1" d="M265.6,250.72c-.39-.32-.83-.58-1.33-.79-.5-.21-1.01-.4-1.53-.58-.52-.17-1.03-.34-1.53-.49-.5-.15-.94-.33-1.33-.53-.39-.2-.71-.44-.94-.71-.24-.27-.36-.62-.36-1.03,0-.33.07-.63.21-.91.14-.28.35-.53.62-.74.27-.21.59-.38.97-.5.38-.12.81-.18,1.28-.18.55,0,1.02.06,1.43.18.4.12.75.25,1.04.4.29.14.54.27.74.39.2.12.38.17.54.17.26,0,.46-.12.59-.35l.63-1.03c-.61-.58-1.34-1.04-2.18-1.37-.84-.33-1.79-.5-2.84-.5-.91,0-1.72.13-2.43.38-.71.25-1.3.59-1.79,1.02-.49.43-.86.92-1.11,1.49-.25.57-.38,1.15-.38,1.77,0,.69.12,1.27.36,1.75.24.48.55.89.94,1.21.39.33.84.6,1.34.82.5.22,1.01.41,1.54.58s1.03.33,1.54.48.95.33,1.34.54c.39.21.71.45.94.74.24.29.36.66.36,1.1,0,.36-.07.7-.2,1.01-.13.32-.34.6-.61.84-.27.24-.62.44-1.03.58-.41.14-.89.21-1.44.21-.64,0-1.18-.07-1.61-.22-.43-.15-.79-.31-1.09-.49-.3-.18-.56-.34-.77-.49-.21-.15-.41-.22-.6-.22s-.34.04-.46.11c-.12.07-.22.18-.3.32l-.67,1.08c.63.57,1.4,1.04,2.31,1.4.91.36,1.92.55,3.04.55.98,0,1.85-.13,2.6-.4.75-.26,1.38-.63,1.9-1.09.52-.46.91-1,1.17-1.63.26-.63.4-1.31.4-2.05,0-.64-.12-1.2-.36-1.66-.24-.46-.55-.85-.94-1.17Z"/>
  <path class="cls-1" d="M283.41,250.72c-.39-.32-.83-.58-1.33-.79-.5-.21-1.01-.4-1.53-.58-.52-.17-1.03-.34-1.53-.49-.5-.15-.94-.33-1.33-.53-.39-.2-.71-.44-.94-.71-.24-.27-.36-.62-.36-1.03,0-.33.07-.63.21-.91.14-.28.35-.53.62-.74.27-.21.59-.38.97-.5.38-.12.81-.18,1.28-.18.55,0,1.02.06,1.43.18.4.12.75.25,1.04.4.29.14.54.27.74.39.2.12.38.17.54.17.26,0,.46-.12.59-.35l.63-1.03c-.61-.58-1.34-1.04-2.18-1.37-.84-.33-1.79-.5-2.84-.5-.91,0-1.72.13-2.43.38s-1.3.59-1.79,1.02c-.49.43-.86.92-1.11,1.49-.25.57-.38,1.15-.38,1.77,0,.69.12,1.27.36,1.75.24.48.55.89.94,1.21.39.33.84.6,1.34.82.5.22,1.01.41,1.54.58.52.17,1.03.33,1.54.48.5.15.95.33,1.34.54.39.21.71.45.94.74.24.29.36.66.36,1.1,0,.36-.07.7-.2,1.01-.13.32-.34.6-.61.84-.27.24-.62.44-1.03.58-.41.14-.89.21-1.44.21-.64,0-1.18-.07-1.61-.22-.43-.15-.79-.31-1.09-.49-.3-.18-.56-.34-.77-.49-.21-.15-.41-.22-.6-.22s-.34.04-.46.11c-.12.07-.22.18-.3.32l-.67,1.08c.63.57,1.4,1.04,2.31,1.4.91.36,1.92.55,3.04.55.98,0,1.85-.13,2.6-.4.75-.26,1.38-.63,1.9-1.09.52-.46.91-1,1.17-1.63.26-.63.4-1.31.4-2.05,0-.64-.12-1.2-.36-1.66-.24-.46-.55-.85-.94-1.17Z"/>
  <rect class="cls-1" x="292.75" y="242.41" width="2.82" height="16.05"/>
  <path class="cls-1" d="M295.59,235.93c-.18-.18-.4-.33-.64-.44-.24-.11-.5-.16-.78-.16s-.53.05-.77.16c-.24.11-.45.25-.63.44s-.33.4-.44.65c-.11.25-.16.51-.16.78s.05.53.16.77c.11.24.25.45.44.63.18.18.4.33.63.44.24.11.49.16.77.16s.53-.05.78-.16c.24-.11.46-.25.64-.44.18-.18.33-.4.44-.63.11-.24.17-.49.17-.77s-.06-.54-.17-.78c-.11-.25-.26-.47-.44-.65Z"/>
  <path class="cls-1" d="M317.21,244.24c-.53-.69-1.17-1.21-1.92-1.56-.75-.35-1.59-.52-2.52-.52-1.11,0-2.09.24-2.96.71-.86.47-1.62,1.09-2.29,1.86v-9.6h-2.84v23.34h1.82c.4,0,.64-.2.73-.6l.14-1.46c.54.72,1.17,1.28,1.89,1.68.72.4,1.6.6,2.64.6s2.05-.21,2.91-.64c.86-.43,1.59-1.01,2.19-1.76.6-.74,1.05-1.63,1.37-2.65.32-1.02.48-2.12.48-3.3,0-1.33-.14-2.51-.43-3.53-.29-1.02-.69-1.88-1.22-2.57ZM314.74,254.89c-.8,1.07-1.95,1.6-3.45,1.6-.76,0-1.45-.14-2.07-.43-.62-.29-1.18-.78-1.69-1.47v-7.77c.58-.77,1.22-1.37,1.91-1.79.69-.42,1.5-.63,2.42-.63.64,0,1.22.11,1.73.33.51.22.94.57,1.28,1.05.35.48.61,1.1.8,1.85.18.75.28,1.65.28,2.69,0,1.98-.4,3.5-1.2,4.56Z"/>
  <rect class="cls-1" x="326.69" y="235.12" width="2.82" height="23.34"/>
  <path class="cls-1" d="M349.67,244.03c-.59-.61-1.29-1.07-2.11-1.39-.81-.32-1.7-.48-2.66-.48-1.16,0-2.21.2-3.14.61-.93.41-1.72.97-2.36,1.68-.64.71-1.14,1.56-1.48,2.53-.34.97-.52,2.02-.52,3.14,0,1.38.19,2.61.57,3.68.38,1.07.91,1.96,1.59,2.69.68.72,1.49,1.27,2.42,1.65s1.96.56,3.07.56c.58,0,1.17-.05,1.76-.15.59-.1,1.16-.25,1.72-.45.55-.2,1.07-.46,1.56-.77.49-.31.9-.68,1.25-1.1l-.79-1.03c-.13-.18-.31-.27-.54-.27-.18,0-.39.08-.64.25-.25.16-.56.34-.93.53-.37.19-.81.37-1.32.53-.51.16-1.12.25-1.83.25-.76,0-1.45-.12-2.06-.37-.61-.25-1.14-.62-1.58-1.13-.44-.5-.79-1.13-1.05-1.88-.25-.75-.39-1.63-.41-2.65h10.68c.26,0,.44-.07.54-.22.1-.15.14-.44.14-.89,0-1.14-.17-2.16-.5-3.05-.33-.89-.79-1.64-1.39-2.25ZM340.29,248.68c.19-1.4.68-2.49,1.46-3.27.78-.79,1.85-1.18,3.22-1.18.64,0,1.22.11,1.72.33.5.22.93.52,1.28.92.35.4.61.87.79,1.41.18.54.27,1.14.27,1.8h-8.73Z"/>
  <path class="cls-1" d="M368,250.72c-.39-.32-.83-.58-1.33-.79-.5-.21-1.01-.4-1.53-.58-.52-.17-1.03-.34-1.53-.49-.5-.15-.94-.33-1.33-.53-.39-.2-.71-.44-.94-.71-.24-.27-.36-.62-.36-1.03,0-.33.07-.63.21-.91.14-.28.35-.53.62-.74.27-.21.59-.38.97-.5.38-.12.81-.18,1.28-.18.55,0,1.02.06,1.43.18.4.12.75.25,1.04.4.29.14.54.27.74.39.2.12.38.17.54.17.26,0,.46-.12.59-.35l.63-1.03c-.61-.58-1.34-1.04-2.18-1.37-.84-.33-1.79-.5-2.84-.5-.91,0-1.72.13-2.43.38-.71.25-1.3.59-1.79,1.02-.49.43-.86.92-1.11,1.49-.25.57-.38,1.15-.38,1.77,0,.69.12,1.27.36,1.75.24.48.55.89.94,1.21.39.33.84.6,1.34.82.5.22,1.01.41,1.54.58s1.03.33,1.54.48c.5.15.95.33,1.34.54.39.21.71.45.94.74.24.29.36.66.36,1.1,0,.36-.07.7-.2,1.01-.13.32-.34.6-.61.84-.27.24-.62.44-1.03.58-.41.14-.89.21-1.44.21-.64,0-1.18-.07-1.61-.22-.43-.15-.79-.31-1.09-.49-.3-.18-.56-.34-.77-.49-.21-.15-.41-.22-.6-.22s-.34.04-.46.11c-.12.07-.22.18-.3.32l-.67,1.08c.63.57,1.4,1.04,2.31,1.4.91.36,1.92.55,3.04.55.98,0,1.85-.13,2.6-.4.75-.26,1.38-.63,1.9-1.09.52-.46.91-1,1.17-1.63.26-.63.4-1.31.4-2.05,0-.64-.12-1.2-.36-1.66-.24-.46-.55-.85-.94-1.17Z"/>
  <path class="cls-1" d="M174.6,243.6c-.55-.6-1.17-1.07-1.87-1.4-.7-.33-1.54-.5-2.52-.5-1.09,0-2.06.21-2.92.64-.86.43-1.58,1.02-2.18,1.77-.6.75-1.05,1.64-1.37,2.65-.32,1.02-.48,2.12-.48,3.3,0,1.33.14,2.51.43,3.53.29,1.02.69,1.88,1.22,2.57.53.69,1.17,1.21,1.92,1.56.75.35,1.58.53,2.5.53,1.14,0,2.15-.25,3.03-.75.88-.5,1.67-1.17,2.35-2l.25,1.95c.11.39.36.59.76.59h1.68v-23.34h-2.82v8.91ZM174.6,253.55c-.58.77-1.22,1.37-1.91,1.79s-1.5.63-2.42.63c-.66,0-1.24-.11-1.74-.33-.51-.22-.94-.57-1.28-1.05-.35-.48-.61-1.09-.79-1.84-.18-.74-.27-1.64-.27-2.69,0-1.98.4-3.5,1.2-4.56.8-1.07,1.95-1.6,3.45-1.6.75,0,1.43.14,2.05.42.62.28,1.19.77,1.7,1.47v7.77Z"/>
  <path class="cls-1" d="M197.34,243.61c-.59-.61-1.29-1.07-2.11-1.39-.81-.32-1.7-.48-2.66-.48-1.16,0-2.21.2-3.14.61-.93.41-1.72.97-2.36,1.68-.64.71-1.14,1.56-1.48,2.53-.34.97-.52,2.02-.52,3.14,0,1.38.19,2.61.57,3.68.38,1.07.91,1.96,1.59,2.69.68.72,1.49,1.27,2.42,1.65.94.37,1.96.56,3.07.56.58,0,1.17-.05,1.76-.15.59-.1,1.16-.25,1.72-.45.55-.2,1.07-.46,1.56-.77.49-.31.9-.68,1.25-1.1l-.79-1.03c-.13-.18-.31-.27-.54-.27-.18,0-.39.08-.64.25-.25.16-.56.34-.93.53-.37.19-.81.37-1.32.53-.51.16-1.12.25-1.83.25-.76,0-1.45-.12-2.06-.37-.61-.25-1.14-.62-1.58-1.13-.44-.5-.79-1.13-1.05-1.88-.25-.75-.39-1.63-.41-2.65h10.68c.26,0,.44-.07.54-.22.09-.15.14-.44.14-.89,0-1.14-.17-2.16-.5-3.05-.33-.89-.79-1.64-1.39-2.25ZM187.96,248.26c.19-1.4.68-2.49,1.46-3.27.78-.79,1.85-1.18,3.22-1.18.64,0,1.22.11,1.72.33.5.22.93.52,1.28.92.35.4.61.87.79,1.41.18.54.27,1.14.27,1.8h-8.73Z"/>
  <path class="cls-1" d="M17.54,253.35c-.17,0-.34.08-.52.24-.4.36-.8.67-1.2.93-.4.26-.82.47-1.28.64-.46.17-.96.29-1.5.37-.54.08-1.15.12-1.82.12-1.11,0-2.14-.2-3.11-.6-.96-.4-1.79-.99-2.5-1.75-.7-.77-1.26-1.7-1.66-2.81s-.61-2.37-.61-3.79.2-2.61.61-3.72.97-2.05,1.7-2.82c.73-.77,1.6-1.37,2.61-1.78,1.01-.42,2.12-.63,3.34-.63.68,0,1.27.05,1.79.15.52.1.97.22,1.36.37.39.15.73.31,1.01.48.29.17.53.33.74.48.21.15.39.27.55.37.15.1.3.15.44.15.18,0,.32-.03.41-.1.09-.07.18-.16.25-.26l1-1.41c-.94-.89-2.02-1.59-3.22-2.11-1.21-.52-2.65-.78-4.32-.78s-3.24.28-4.64.85c-1.4.56-2.6,1.36-3.6,2.38-1,1.02-1.78,2.25-2.34,3.68-.55,1.43-.83,2.99-.83,4.71s.26,3.28.78,4.71c.52,1.43,1.25,2.65,2.19,3.67.94,1.02,2.08,1.81,3.41,2.38,1.33.56,2.82.85,4.45.85,1.87,0,3.47-.3,4.79-.9,1.33-.6,2.45-1.44,3.38-2.52l-1.2-1.32c-.14-.14-.29-.21-.46-.21Z"/>
  <path class="cls-1" d="M34.41,241.7c-1.09,0-2.04.31-2.84.94-.81.63-1.49,1.5-2.04,2.62l-.19-2.5c-.04-.29-.12-.49-.24-.6-.12-.12-.33-.17-.63-.17h-1.62v16.05h2.82v-10.22c.44-1.09,1-1.92,1.66-2.49.66-.57,1.48-.86,2.46-.86.55,0,.98.05,1.28.15.31.1.53.15.68.15.25,0,.42-.13.49-.4l.36-2.11c-.31-.18-.64-.32-1-.42-.36-.1-.76-.15-1.2-.15Z"/>
  <path class="cls-1" d="M51.01,239.16l3.69-4.09h-2.76c-.34,0-.59.06-.77.17-.17.11-.34.29-.48.53l-2.35,3.83h1.68c.22,0,.4-.03.55-.1.14-.07.29-.18.44-.34Z"/>
  <path class="cls-1" d="M54.81,243.61c-.59-.61-1.29-1.07-2.11-1.39-.81-.32-1.7-.48-2.66-.48-1.16,0-2.21.2-3.14.61-.93.41-1.72.97-2.36,1.68-.64.71-1.14,1.56-1.48,2.53-.34.97-.51,2.02-.51,3.14,0,1.38.19,2.61.57,3.68.38,1.07.91,1.96,1.59,2.69.68.72,1.49,1.27,2.42,1.65.94.37,1.96.56,3.07.56.58,0,1.17-.05,1.76-.15.59-.1,1.16-.25,1.72-.45.55-.2,1.07-.46,1.56-.77.49-.31.9-.68,1.25-1.1l-.79-1.03c-.13-.18-.31-.27-.54-.27-.18,0-.39.08-.64.25-.25.16-.56.34-.93.53-.37.19-.81.37-1.32.53-.51.16-1.12.25-1.83.25-.76,0-1.45-.12-2.06-.37-.61-.25-1.14-.62-1.58-1.13-.44-.5-.79-1.13-1.05-1.88-.25-.75-.39-1.63-.41-2.65h10.68c.26,0,.44-.07.54-.22.09-.15.14-.44.14-.89,0-1.14-.17-2.16-.5-3.05-.33-.89-.8-1.64-1.39-2.25ZM45.43,248.26c.19-1.4.68-2.49,1.46-3.27.78-.79,1.85-1.18,3.22-1.18.64,0,1.22.11,1.72.33.5.22.93.52,1.28.92.35.4.61.87.79,1.41.18.54.27,1.14.27,1.8h-8.73Z"/>
  <path class="cls-1" d="M74.7,243.38c-.48-.53-1.06-.94-1.76-1.24-.7-.3-1.5-.44-2.39-.44-1.25,0-2.38.21-3.41.63-1.02.42-1.98,1.06-2.87,1.92l.51.9c.08.15.2.27.34.37.14.1.31.15.5.15.24,0,.49-.09.74-.26.25-.17.54-.37.89-.59.34-.22.75-.41,1.22-.59.47-.17,1.05-.26,1.73-.26,1.05,0,1.84.32,2.37.96.53.64.8,1.59.8,2.85v1.26c-1.82,0-3.35.15-4.61.44-1.26.29-2.27.67-3.05,1.12-.78.46-1.34.98-1.69,1.57-.35.59-.52,1.2-.52,1.84,0,.73.12,1.36.36,1.9.24.54.56.98.96,1.33.4.35.87.61,1.42.79.54.17,1.13.26,1.75.26s1.17-.05,1.67-.16c.5-.11.97-.26,1.42-.47.44-.21.87-.46,1.27-.76.4-.3.81-.64,1.24-1.02l.32,1.49c.05.28.16.46.33.54.17.09.39.13.67.13h1.25v-10.27c0-.9-.12-1.72-.36-2.47-.24-.75-.6-1.39-1.08-1.92ZM73.37,254.15c-.32.34-.64.64-.97.9-.33.26-.68.49-1.05.67-.36.18-.75.33-1.16.43-.41.1-.87.15-1.36.15-.37,0-.71-.05-1.03-.14-.32-.09-.59-.23-.82-.43-.23-.2-.42-.45-.55-.76-.14-.31-.21-.68-.21-1.1,0-.45.13-.85.39-1.21.26-.36.67-.68,1.24-.94.57-.27,1.31-.48,2.22-.65.91-.16,2.01-.25,3.31-.25v3.31Z"/>
  <path class="cls-1" d="M92,255.22c-.08,0-.18.04-.29.12-.11.08-.25.17-.4.26-.16.09-.35.18-.56.26-.22.08-.47.12-.77.12-.52,0-.94-.16-1.27-.49-.33-.33-.49-.83-.49-1.51v-9.63h4.6v-2.04h-4.6v-5.53h-1.43c-.18,0-.33.05-.44.15-.12.1-.18.23-.21.39l-.65,4.96-2.63.33v1.13c0,.21.06.37.17.47.12.1.26.15.43.15h1.93v9.83c0,1.33.34,2.35,1.02,3.06.68.71,1.66,1.06,2.92,1.06.73,0,1.44-.13,2.12-.39s1.27-.62,1.76-1.07l-.82-1.35c-.12-.18-.25-.27-.4-.27Z"/>
  <path class="cls-1" d="M111.48,243.61c-.59-.61-1.29-1.07-2.11-1.39-.81-.32-1.7-.48-2.66-.48-1.16,0-2.21.2-3.14.61-.93.41-1.72.97-2.36,1.68-.64.71-1.14,1.56-1.48,2.53-.34.97-.51,2.02-.51,3.14,0,1.38.19,2.61.57,3.68.38,1.07.91,1.96,1.59,2.69.68.72,1.49,1.27,2.42,1.65.94.37,1.96.56,3.07.56.58,0,1.17-.05,1.76-.15.59-.1,1.16-.25,1.72-.45.55-.2,1.07-.46,1.56-.77.49-.31.9-.68,1.25-1.1l-.79-1.03c-.13-.18-.31-.27-.54-.27-.18,0-.39.08-.64.25-.25.16-.56.34-.93.53-.37.19-.81.37-1.32.53-.51.16-1.12.25-1.83.25-.76,0-1.45-.12-2.06-.37-.61-.25-1.14-.62-1.58-1.13-.44-.5-.79-1.13-1.05-1.88-.25-.75-.39-1.63-.41-2.65h10.68c.26,0,.44-.07.54-.22.09-.15.14-.44.14-.89,0-1.14-.17-2.16-.5-3.05-.33-.89-.8-1.64-1.39-2.25ZM102.1,248.26c.19-1.4.68-2.49,1.46-3.27.78-.79,1.85-1.18,3.22-1.18.64,0,1.22.11,1.72.33.5.22.93.52,1.28.92.35.4.61.87.79,1.41.18.54.27,1.14.27,1.8h-8.73Z"/>
  <path class="cls-1" d="M131.17,253.82c-.61.7-1.28,1.24-2.01,1.63-.73.39-1.51.59-2.33.59-1.13,0-1.98-.33-2.54-1-.56-.67-.84-1.61-.84-2.82v-10.24h-2.82v10.24c0,.91.11,1.74.34,2.49.23.75.57,1.39,1.02,1.92.45.53,1.02.94,1.69,1.23.67.29,1.44.44,2.32.44,1.12,0,2.11-.24,2.98-.71.87-.47,1.65-1.09,2.35-1.86l.22,1.73c.11.39.36.59.76.59h1.68v-16.05h-2.82v11.84Z"/>
  <path class="cls-1" d="M150.25,241.7c-1.09,0-2.04.31-2.84.94-.81.63-1.49,1.5-2.04,2.62l-.19-2.5c-.04-.29-.12-.49-.24-.6-.12-.12-.33-.17-.63-.17h-1.62v16.05h2.82v-10.22c.44-1.09,1-1.92,1.66-2.49.66-.57,1.48-.86,2.46-.86.55,0,.98.05,1.28.15.31.1.53.15.68.15.25,0,.42-.13.49-.4l.36-2.11c-.31-.18-.64-.32-1-.42-.36-.1-.76-.15-1.2-.15Z"/>
  <rect class="cls-1" x=".07" y="167.59" width="369.32" height="2.54"/>
  <rect class="cls-1" x=".07" y="221.97" width="369.32" height="2.54"/>
  <polygon class="cls-1" points="2.76 197.42 11.09 197.42 11.09 195.25 2.76 195.25 2.76 188.38 12.51 188.38 12.51 186.21 0 186.21 0 205.88 2.76 205.88 2.76 197.42"/>
  <path class="cls-1" d="M13.91,205.88c.24,0,.43-.06.6-.19.16-.13.27-.27.34-.44l1.9-4.75h9.11l1.9,4.75c.08.18.19.33.34.45.15.12.35.18.6.18h2.12l-8.12-19.66h-2.79l-8.12,19.66h2.12ZM20.69,190.59c.09-.24.19-.51.29-.83.1-.32.2-.66.3-1.04.2.74.4,1.36.61,1.85l3.19,8h-7.58l3.19-7.99Z"/>
  <path class="cls-1" d="M36.4,190.38c.65-.67,1.43-1.18,2.33-1.54.9-.36,1.9-.54,2.98-.54.6,0,1.14.04,1.6.13.46.09.87.19,1.22.32s.65.27.91.41c.26.15.48.28.67.41.19.13.35.24.49.32s.27.13.39.13c.16,0,.28-.03.37-.09s.16-.13.23-.23l.89-1.22c-.84-.77-1.8-1.38-2.88-1.83-1.08-.45-2.37-.67-3.86-.67s-2.89.24-4.14.73c-1.25.49-2.33,1.18-3.22,2.07-.9.89-1.59,1.95-2.09,3.18-.5,1.24-.74,2.59-.74,4.08s.23,2.84.69,4.08c.46,1.24,1.11,2.29,1.95,3.18.84.88,1.86,1.57,3.05,2.06,1.19.49,2.52.73,3.98.73,1.67,0,3.1-.26,4.28-.78,1.19-.52,2.19-1.25,3.02-2.18l-1.08-1.14c-.12-.12-.26-.18-.41-.18s-.31.07-.47.21c-.36.31-.72.58-1.07.8-.35.22-.74.41-1.15.56-.41.15-.86.25-1.34.32-.48.07-1.02.1-1.63.1-.99,0-1.92-.17-2.78-.52-.86-.35-1.6-.85-2.23-1.52-.63-.66-1.12-1.47-1.49-2.44-.36-.96-.55-2.05-.55-3.28s.18-2.26.55-3.22c.36-.96.87-1.77,1.52-2.44Z"/>
  <path class="cls-1" d="M59.89,205.88v-7.82l7.45-11.84h-2.44c-.24,0-.43.07-.57.2-.15.13-.26.27-.35.42l-4.63,7.64c-.19.31-.34.61-.47.89-.12.28-.24.57-.34.85-.1-.27-.22-.55-.35-.84-.13-.28-.29-.59-.47-.91l-4.65-7.64c-.1-.17-.23-.32-.37-.44-.14-.12-.34-.18-.58-.18h-2.41l7.44,11.84v7.82h2.73Z"/>
  <polygon class="cls-1" points="69.83 186.21 69.83 205.88 81.36 205.88 81.36 203.64 72.58 203.64 72.58 186.21 69.83 186.21"/>
  <rect class="cls-1" x="84.84" y="186.21" width="2.75" height="19.66"/>
  <polygon class="cls-1" points="100.24 205.88 100.24 188.45 106.8 188.45 106.8 186.21 90.9 186.21 90.9 188.45 97.49 188.45 97.49 205.88 100.24 205.88"/>
  <rect class="cls-1" x="110.14" y="186.21" width="2.75" height="19.66"/>
  <polygon class="cls-1" points="130.78 188.38 130.78 186.21 118.27 186.21 118.27 205.88 130.78 205.88 130.78 203.71 121.03 203.71 121.03 197 128.92 197 128.92 194.91 121.03 194.91 121.03 188.38 130.78 188.38"/>
  <path class="cls-1" d="M142.51,202.89c-.35.32-.79.56-1.3.73-.51.17-1.09.26-1.74.26-.78,0-1.45-.1-1.99-.31-.54-.21-1.01-.43-1.39-.68s-.7-.47-.96-.68c-.26-.21-.48-.31-.68-.31-.13,0-.25.03-.36.1-.11.07-.2.15-.28.25l-.79,1.26c.76.79,1.69,1.41,2.77,1.87,1.08.46,2.28.69,3.59.69,1.08,0,2.04-.16,2.88-.48.85-.32,1.56-.76,2.14-1.32.58-.56,1.02-1.21,1.32-1.97.3-.75.45-1.56.45-2.42,0-.81-.14-1.5-.42-2.06-.28-.56-.65-1.03-1.1-1.41-.46-.38-.98-.7-1.56-.95-.58-.25-1.18-.48-1.78-.68-.61-.2-1.2-.4-1.78-.58-.58-.19-1.1-.41-1.56-.67-.46-.26-.83-.56-1.1-.93-.28-.36-.42-.82-.42-1.37,0-.43.08-.83.24-1.2.16-.37.4-.69.72-.97.32-.27.71-.49,1.18-.65.47-.16,1.01-.24,1.63-.24.65,0,1.21.08,1.66.23.46.16.85.33,1.18.51.33.19.6.36.81.52.21.16.4.23.56.23.15,0,.27-.03.37-.1.09-.07.18-.17.27-.31l.67-1.26c-.7-.66-1.52-1.16-2.45-1.51-.94-.35-1.97-.52-3.1-.52-1.01,0-1.91.15-2.68.45-.78.3-1.43.7-1.96,1.21-.53.5-.93,1.08-1.21,1.73-.28.65-.42,1.32-.42,2.02,0,.87.14,1.6.42,2.19.28.59.64,1.08,1.1,1.47.45.39.97.71,1.55.96.58.25,1.18.46,1.78.65.61.19,1.2.37,1.78.55.58.18,1.1.4,1.55.65.45.26.82.57,1.1.95.28.38.42.87.42,1.46,0,.54-.09,1.03-.28,1.47-.19.44-.46.82-.81,1.13Z"/>
  <path class="cls-1" d="M173.75,191.43v14.45h2.41v-19.66h-2.03c-.25,0-.43.02-.57.07-.13.05-.26.17-.38.38l-6.87,12.09c-.13.24-.25.47-.35.71-.1.23-.2.48-.3.73-.09-.25-.19-.49-.29-.73-.1-.24-.21-.47-.35-.69l-7.01-12.1c-.12-.21-.25-.34-.38-.38-.13-.05-.32-.07-.57-.07h-2.03v19.66h2.41v-14.45c0-.19,0-.4-.02-.63-.01-.23-.04-.46-.06-.7l7.11,12.34c.24.41.57.62.99.62h.4c.43,0,.76-.21.99-.62l6.95-12.3c-.02.23-.03.45-.04.67,0,.22-.01.43-.01.62Z"/>
  <path class="cls-1" d="M180.85,186.21v11.95c0,1.13.19,2.19.56,3.16.37.97.91,1.81,1.61,2.52.7.71,1.55,1.26,2.55,1.67,1,.4,2.12.6,3.37.6s2.37-.2,3.37-.6c1-.4,1.85-.96,2.54-1.67.69-.71,1.23-1.55,1.6-2.52.37-.97.56-2.02.56-3.16v-11.95h-2.73v11.95c0,.82-.12,1.58-.36,2.26-.24.69-.59,1.28-1.05,1.77-.46.49-1.02.88-1.68,1.15-.66.27-1.41.41-2.25.41s-1.59-.14-2.26-.42c-.67-.28-1.23-.67-1.69-1.16-.46-.49-.81-1.08-1.05-1.77-.24-.69-.36-1.44-.36-2.26v-11.94h-2.73Z"/>
  <polygon class="cls-1" points="201.67 186.21 201.67 205.88 213.2 205.88 213.2 203.64 204.41 203.64 204.41 186.21 201.67 186.21"/>
  <polygon class="cls-1" points="221 205.88 221 188.45 227.56 188.45 227.56 186.21 211.67 186.21 211.67 188.45 218.25 188.45 218.25 205.88 221 205.88"/>
  <rect class="cls-1" x="230.9" y="186.21" width="2.75" height="19.66"/>
  <path class="cls-1" d="M252.28,202.89c-.35.32-.79.56-1.3.73-.51.17-1.09.26-1.74.26-.78,0-1.45-.1-1.99-.31-.54-.21-1.01-.43-1.39-.68-.38-.25-.7-.47-.96-.68-.26-.21-.48-.31-.68-.31-.13,0-.25.03-.36.1-.11.07-.2.15-.28.25l-.79,1.26c.76.79,1.69,1.41,2.77,1.87,1.08.46,2.28.69,3.59.69,1.08,0,2.04-.16,2.88-.48.85-.32,1.56-.76,2.14-1.32.58-.56,1.02-1.21,1.32-1.97.3-.75.45-1.56.45-2.42,0-.81-.14-1.5-.42-2.06-.28-.56-.65-1.03-1.1-1.41-.46-.38-.98-.7-1.56-.95-.58-.25-1.18-.48-1.78-.68-.61-.2-1.2-.4-1.78-.58-.58-.19-1.1-.41-1.56-.67-.46-.26-.83-.56-1.1-.93-.28-.36-.42-.82-.42-1.37,0-.43.08-.83.24-1.2.16-.37.4-.69.72-.97.32-.27.71-.49,1.18-.65.47-.16,1.02-.24,1.63-.24.65,0,1.21.08,1.66.23.46.16.85.33,1.18.51.33.19.59.36.81.52.21.16.4.23.56.23.15,0,.27-.03.37-.1.09-.07.18-.17.27-.31l.67-1.26c-.7-.66-1.52-1.16-2.45-1.51-.93-.35-1.97-.52-3.1-.52-1.01,0-1.91.15-2.68.45-.78.3-1.43.7-1.96,1.21-.53.5-.93,1.08-1.21,1.73-.28.65-.42,1.32-.42,2.02,0,.87.14,1.6.42,2.19.28.59.64,1.08,1.1,1.47.45.39.97.71,1.55.96.58.25,1.18.46,1.78.65.61.19,1.2.37,1.78.55.58.18,1.1.4,1.55.65.45.26.82.57,1.1.95.28.38.42.87.42,1.46,0,.54-.09,1.03-.28,1.47-.19.44-.46.82-.81,1.13Z"/>
  <polygon class="cls-1" points="271.91 188.38 271.91 186.21 259.4 186.21 259.4 205.88 271.91 205.88 271.91 203.71 262.16 203.71 262.16 197 270.05 197 270.05 194.91 262.16 194.91 262.16 188.38 271.91 188.38"/>
  <path class="cls-1" d="M287.93,195.23c.43-.48.76-1.02.98-1.63.23-.6.34-1.25.34-1.95,0-.83-.15-1.58-.44-2.26-.29-.67-.74-1.25-1.35-1.72-.61-.48-1.38-.84-2.32-1.09-.93-.25-2.04-.38-3.33-.38h-5.74v19.66h2.73v-8.21h2.08c.38,0,.66.05.85.14.19.1.36.25.52.47l5.27,7.03c.24.38.6.56,1.1.56h2.44l-5.92-7.81c-.26-.37-.57-.65-.91-.84.78-.17,1.48-.43,2.1-.77.62-.34,1.14-.75,1.57-1.23ZM285.34,194.66c-.41.34-.92.61-1.53.8-.61.19-1.32.28-2.12.28h-2.87v-7.42h3c1.58,0,2.76.3,3.56.89.8.6,1.2,1.48,1.2,2.65,0,.58-.1,1.1-.31,1.58s-.52.88-.93,1.23Z"/>
  <path class="cls-1" d="M310.66,186.21h-2.21c-.24,0-.43.07-.6.2-.16.13-.27.28-.34.43l-5.71,13.87c-.13.31-.25.65-.35,1.02-.1.37-.19.75-.28,1.14-.1-.39-.21-.77-.32-1.14-.11-.37-.23-.7-.36-1.02l-5.74-13.87c-.08-.18-.19-.33-.34-.45-.15-.12-.35-.18-.6-.18h-2.2l8.27,19.66h2.48l8.27-19.66Z"/>
  <rect class="cls-1" x="313.7" y="186.21" width="2.75" height="19.66"/>
  <path class="cls-1" d="M325.52,190.38c.65-.67,1.43-1.18,2.33-1.54.9-.36,1.9-.54,2.98-.54.6,0,1.14.04,1.6.13.46.09.87.19,1.22.32s.65.27.91.41c.26.15.48.28.67.41.19.13.35.24.49.32.14.09.27.13.39.13.16,0,.28-.03.37-.09.09-.06.16-.13.23-.23l.89-1.22c-.84-.77-1.8-1.38-2.88-1.83-1.08-.45-2.37-.67-3.86-.67s-2.89.24-4.14.73c-1.25.49-2.33,1.18-3.22,2.07-.9.89-1.59,1.95-2.09,3.18-.5,1.24-.74,2.59-.74,4.08s.23,2.84.69,4.08c.46,1.24,1.11,2.29,1.95,3.18.84.88,1.86,1.57,3.05,2.06,1.19.49,2.52.73,3.98.73,1.67,0,3.1-.26,4.29-.78,1.18-.52,2.19-1.25,3.02-2.18l-1.08-1.14c-.12-.12-.26-.18-.41-.18s-.31.07-.47.21c-.36.31-.72.58-1.07.8-.35.22-.74.41-1.15.56-.41.15-.86.25-1.34.32-.48.07-1.03.1-1.63.1-.99,0-1.92-.17-2.78-.52-.86-.35-1.6-.85-2.23-1.52-.63-.66-1.12-1.47-1.49-2.44-.36-.96-.55-2.05-.55-3.28s.18-2.26.55-3.22c.36-.96.87-1.77,1.52-2.44Z"/>
  <polygon class="cls-1" points="353.69 188.38 353.69 186.21 341.18 186.21 341.18 205.88 353.69 205.88 353.69 203.71 343.94 203.71 343.94 197 351.83 197 351.83 194.91 343.94 194.91 343.94 188.38 353.69 188.38"/>
  <path class="cls-1" d="M365.42,202.89c-.35.32-.79.56-1.3.73-.51.17-1.09.26-1.74.26-.78,0-1.45-.1-1.99-.31-.54-.21-1.01-.43-1.39-.68s-.7-.47-.96-.68c-.26-.21-.48-.31-.68-.31-.13,0-.25.03-.36.1-.11.07-.2.15-.28.25l-.79,1.26c.76.79,1.69,1.41,2.77,1.87,1.08.46,2.28.69,3.59.69,1.08,0,2.04-.16,2.88-.48.85-.32,1.56-.76,2.14-1.32.58-.56,1.02-1.21,1.32-1.97.3-.75.45-1.56.45-2.42,0-.81-.14-1.5-.42-2.06-.28-.56-.65-1.03-1.1-1.41-.46-.38-.98-.7-1.56-.95-.58-.25-1.18-.48-1.78-.68-.61-.2-1.2-.4-1.78-.58-.58-.19-1.1-.41-1.56-.67-.46-.26-.83-.56-1.1-.93-.28-.36-.42-.82-.42-1.37,0-.43.08-.83.24-1.2.16-.37.4-.69.72-.97.32-.27.71-.49,1.18-.65.47-.16,1.02-.24,1.63-.24.65,0,1.21.08,1.66.23.46.16.85.33,1.18.51.33.19.59.36.81.52s.4.23.56.23c.15,0,.27-.03.37-.1.09-.07.18-.17.27-.31l.67-1.26c-.7-.66-1.52-1.16-2.45-1.51-.93-.35-1.97-.52-3.1-.52-1.01,0-1.91.15-2.68.45-.78.3-1.43.7-1.96,1.21s-.93,1.08-1.21,1.73c-.28.65-.42,1.32-.42,2.02,0,.87.14,1.6.42,2.19.28.59.64,1.08,1.1,1.47.45.39.97.71,1.55.96.58.25,1.18.46,1.78.65.61.19,1.2.37,1.78.55.58.18,1.1.4,1.55.65s.82.57,1.1.95c.28.38.42.87.42,1.46,0,.54-.09,1.03-.28,1.47-.19.44-.46.82-.81,1.13Z"/>
  <path class="cls-1" d="M296.68,35.11c3.88-3.32,10.03-4.98,18.45-4.98,13.05,0,23.07,2.4,30.04,7.2l4.77-3.68c-3.96-3.07-8.98-5.43-15.06-7.07-6.08-1.65-12.67-2.47-19.75-2.47-10.1,0-17.67,2.23-22.72,6.7-5.05,4.46-7.57,10.27-7.57,17.41s2.04,12.94,6.11,17.41c4.07,4.46,10.18,6.7,18.33,6.7h9.46c9.71,0,17.17,2.85,22.39,8.54,5.22,5.69,7.82,12.89,7.82,21.59s-3.11,16.04-9.33,21.68c-6.22,5.64-15.22,8.45-26.99,8.45-7.98,0-15.44-1.03-22.39-3.1-6.95-2.06-12.71-4.96-17.28-8.7l-4.69,3.77c5.13,4.46,11.58,7.92,19.33,10.38,7.75,2.46,16.1,3.68,25.02,3.68,13.39,0,23.79-3.42,31.21-10.25,7.42-6.83,11.13-15.47,11.13-25.9s-3.19-18.86-9.58-25.78c-6.39-6.92-15.25-10.38-26.57-10.38h-9.54c-6.53,0-11.23-1.65-14.1-4.94-2.87-3.29-4.31-7.67-4.31-13.14s1.94-9.78,5.82-13.1Z"/>
  <path class="cls-1" d="M359.4,26.11c-5.13-4.46-11.56-7.92-19.29-10.38-7.73-2.46-16.05-3.68-24.98-3.68-13.39,0-23.8,3.42-31.21,10.25-7.42,6.83-11.13,15.47-11.13,25.9s3.22,19.07,9.67,25.9c6.44,6.83,15.38,10.25,26.82,10.25h9.12c6.53,0,11.24,1.66,14.14,4.98,2.9,3.32,4.35,7.69,4.35,13.1s-1.94,9.78-5.82,13.1c-3.88,3.32-10.03,4.98-18.45,4.98-13.11,0-23.15-2.4-30.13-7.2l-4.77,3.68c3.96,3.07,9,5.43,15.11,7.07,6.11,1.65,12.71,2.47,19.79,2.47,10.1,0,17.67-2.23,22.72-6.7,5.05-4.46,7.57-10.26,7.57-17.41s-2.04-12.8-6.11-17.32c-4.07-4.52-10.18-6.78-18.33-6.78h-9.21c-9.82,0-17.35-2.83-22.6-8.49-5.24-5.66-7.87-12.87-7.87-21.63s3.11-16.04,9.33-21.68c6.22-5.63,15.22-8.45,26.99-8.45,7.98,0,15.43,1.03,22.34,3.1,6.92,2.06,12.66,4.97,17.24,8.7l4.69-3.77Z"/>
  <path class="cls-1" d="M273.08,82.26c3.99,4.41,9.09,7.87,15.32,10.38,6.22,2.51,13.18,3.77,20.88,3.77h9.04c2.45,0,4.14.54,5.06,1.63.92,1.09,1.38,2.55,1.38,4.39s-.82,3.38-2.47,4.44c-1.65,1.06-4.87,1.59-9.67,1.59-9.88,0-16.77-.89-20.67-2.68l-4.85,3.68c5.69,3.35,14.2,5.02,25.52,5.02,11.99,0,17.99-4.02,17.99-12.05,0-3.57-.95-6.47-2.85-8.7-1.9-2.23-4.99-3.35-9.29-3.35h-9.21c-8.93,0-16.65-1.91-23.18-5.73-6.53-3.82-11.38-8.88-14.56-15.19-3.18-6.3-4.77-13.39-4.77-21.26,0-5.86,1.07-11.33,3.22-16.4,2.15-5.08,5.22-9.54,9.21-13.39,3.99-3.85,9.07-6.88,15.23-9.08,6.16-2.2,13.07-3.31,20.71-3.31,9.76,0,18.91,1.41,27.45,4.23,8.54,2.82,15.65,6.79,21.34,11.93l4.85-3.6c-6.25-5.86-14.06-10.42-23.43-13.68-9.37-3.26-19.44-4.9-30.21-4.9-6.86,0-13.24.82-19.12,2.47-5.89,1.65-10.96,3.93-15.23,6.86-4.27,2.93-7.92,6.4-10.96,10.42-3.04,4.02-5.31,8.43-6.82,13.22-1.51,4.8-2.26,9.88-2.26,15.23,0,6.69,1.06,12.94,3.18,18.74,2.12,5.8,5.17,10.91,9.16,15.32Z"/>
  <polygon class="cls-1" points="42.85 96.41 76.34 96.41 76.34 90.38 42.85 90.38 42.85 84.36 76.34 84.36 76.34 78.33 42.85 78.33 42.85 72.3 76.34 72.3 76.34 66.28 42.85 66.28 42.85 36.15 117.6 36.15 117.6 36.15 117.64 36.24 117.64 144.61 123.67 144.61 123.67 47.7 155.62 108.46 162.39 108.46 121.28 30.18 42.85 30.13 42.85 24.1 103.9 24.1 103.9 18.08 42.85 18.08 42.85 12.05 103.53 12.05 103.53 6.03 36.83 6.03 36.83 144.61 42.85 144.61 42.85 96.41"/>
  <rect class="cls-1" x="24.78" y="6.03" width="6.03" height="138.58"/>
  <rect class="cls-1" x="12.73" y="6.03" width="6.03" height="138.58"/>
  <rect class="cls-1" x=".68" y="6.03" width="6.03" height="138.58"/>
  <polygon class="cls-1" points="216.29 6.03 209.43 6.03 174.61 71.72 178.13 78.08 216.29 6.03"/>
  <polygon class="cls-1" points="185.07 91.22 229.93 6.03 223.15 6.03 181.64 84.94 185.07 91.22"/>
  <polygon class="cls-1" points="176.03 108.46 122.14 6.03 115.28 6.03 169.17 108.46 176.03 108.46"/>
  <polygon class="cls-1" points="231.52 144.61 231.52 36.74 225.49 48.2 225.49 144.61 231.52 144.61"/>
  <polygon class="cls-1" points="207.42 144.61 207.42 82.68 201.39 94.06 201.39 144.61 207.42 144.61"/>
  <polygon class="cls-1" points="219.47 144.61 219.47 59.59 213.44 70.97 213.44 144.61 219.47 144.61"/>
  <path class="cls-1" d="M189.59,108.46l47.95-90.97v56.3s.3,37.21,21.35,58.26c0,0,0,0,0,0,6.25,5.86,14.07,10.42,23.47,13.68,9.4,3.26,19.48,4.9,30.25,4.9,6.86,0,13.23-.82,19.12-2.47,5.89-1.65,10.96-3.93,15.23-6.86,4.27-2.93,7.92-6.4,10.96-10.42,3.04-4.02,5.31-8.42,6.82-13.22,1.51-4.8,2.26-9.87,2.26-15.23,0-6.58-1.03-12.76-3.1-18.54-2.07-5.77-5.05-10.88-8.95-15.31-3.91-4.44-8.88-7.94-14.94-10.5-6.05-2.57-12.85-3.85-20.38-3.85h-10.38c-2.4,0-4.05-.53-4.94-1.59-.89-1.06-1.34-2.54-1.34-4.43s.82-3.38,2.47-4.44c1.64-1.06,4.87-1.59,9.67-1.59,9.82,0,16.68.89,20.59,2.68l4.85-3.68c-5.69-3.35-14.17-5.02-25.44-5.02-12,0-17.99,4.02-17.99,12.05,0,3.63.95,6.54,2.85,8.75,1.9,2.2,4.99,3.31,9.29,3.31h10.13c8.7,0,16.25,1.95,22.64,5.86,6.39,3.91,11.14,9,14.27,15.27,3.12,6.28,4.69,13.29,4.69,21.05,0,5.86-1.08,11.33-3.22,16.4-2.15,5.08-5.22,9.54-9.21,13.39-3.99,3.85-9.07,6.88-15.23,9.08-6.16,2.2-13.07,3.31-20.71,3.31-9.76,0-18.93-1.41-27.49-4.23-8.56-2.82-15.69-6.79-21.38-11.93h0s-20.18-20.82-20.18-54.66V6.03h-6.86l-50.46,96.07L135.7,6.03h-6.78l53.81,102.43h6.86Z"/>
</svg>